<svg
  xmlns="http://www.w3.org/2000/svg"
  width="24"
  height="24"
  viewBox="0 0 24 24"
  fill="none"
  stroke="currentColor"
  stroke-width="2"
  stroke-linecap="round"
  stroke-linejoin="round"
  class="feather feather-github"
>
  <path
    d="M12 2C6.477 2 2 6.477 2 12C2 15.93 4.322 19.297 8.186 20.635C8.794 20.744 9 20.345 9 20.068V18.771C6.423 19.27 5.955 17.254 5.955 17.254C5.478 16.005 4.604 15.605 4.604 15.605C3.737 14.915 4.855 14.93 4.855 14.93C6.16 14.998 6.82 16.345 6.82 16.345C7.906 18.268 9.53 17.719 10.044 17.455C10.167 16.605 10.561 16.116 10.984 15.866C8.285 15.566 5.44 14.485 5.44 10.342C5.44 9.105 5.905 7.981 6.616 7.107C6.506 6.832 6.154 5.63 6.814 4.233C6.814 4.233 7.746 4.003 9 5.048C9.928 4.77 10.964 4.631 12 4.631C13.036 4.631 14.072 4.77 14.999 5.048C16.254 3.998 17.187 4.233 17.187 4.233C17.846 5.63 17.495 6.832 17.385 7.107C18.095 7.98 18.56 9.105 18.56 10.342C18.56 14.495 15.712 15.565 13.013 15.86C13.439 16.116 13.833 16.608 13.956 17.462C14.471 17.726 16.1 18.268 16.1 18.268V19.559C16.1 19.84 16.305 20.239 16.922 20.125C20.781 18.788 23 15.927 23 12C23 6.477 18.523 2 12 2Z"
  ></path>
</svg>
