<svg
  xmlns="http://www.w3.org/2000/svg"
  viewBox="0 0 24 24"
  fill="none"
  stroke="currentColor"
  stroke-width="2"
  stroke-linecap="round"
  stroke-linejoin="round"
  class="feather feather-linkedin"
>
  <path
    d="M20.57 3h-17.15C2.51 3 2 3.51 2 4.13v15.74c0 .62.51 1.13 1.13 1.13h17.15c.62 0 1.13-.51 1.13-1.13V4.13c0-.62-.51-1.13-1.13-1.13zM9.23 18.72h-2.75V9.23h2.75v9.49zM8.34 8.14h-.02c-.95 0-1.57-.63-1.57-1.42s.62-1.42 1.58-1.42c.96 0 1.57.63 1.57 1.42s-.62 1.42-1.56 1.42zM18.71 18.72h-2.75v-4.09c0-1.03-.37-1.74-1.3-1.74c-.71 0-1.13.48-1.32.94-.07.17-.08.41-.08.65v4.24H9.03c.04-8.8 0-9.71 0-9.71h2.75v1.37c.37-.58 1.03-1.41 2.51-1.41c1.84 0 3.23 1.21 3.23 3.82v6.93z"
  ></path>
</svg>